HIERARCHY
ROOT Hips
{
	OFFSET 0.000000 97.167313 0.000000
	CHANNELS 6 Xposition Yposition Zposition Xrotation Yrotation Zrotation
	JOINT Spine
	{
		OFFSET 0.000000 13.784798 0.064400
		CHANNELS 3 Xrotation Yrotation Zrotation
		JOINT Spine1
		{
			OFFSET 0.000000 12.037903 0.404700
			CHANNELS 3 Xrotation Yrotation Zrotation
			JOINT Spine2
			{
				OFFSET 0.000000 17.795601 0.420200
				CHANNELS 3 Xrotation Yrotation Zrotation
				JOINT Neck
				{
					OFFSET 0.000000 39.131302 11.954600
					CHANNELS 3 Xrotation Yrotation Zrotation
					JOINT Head
					{
						OFFSET 0.000000 14.456192 15.627699
						CHANNELS 3 Xrotation Yrotation Zrotation
						JOINT HeadTop_End
						{
							OFFSET 0.000000 15.703506 7.603401
							CHANNELS 3 Xrotation Yrotation Zrotation
							End Site
							{
								OFFSET 0.000000 17.447403 0.000000
							}
						}
					}
				}
				JOINT LeftShoulder
				{
					OFFSET 17.399500 24.608795 1.168800
					CHANNELS 3 Xrotation Yrotation Zrotation
					JOINT LeftArm
					{
						OFFSET 18.980635 5.765305 1.818600
						CHANNELS 3 Xrotation Yrotation Zrotation
						JOINT LeftForeArm
						{
							OFFSET 49.290169 0.000000 0.000000
							CHANNELS 3 Xrotation Yrotation Zrotation
							JOINT LeftHand
							{
								OFFSET 31.562012 0.000000 0.000000
								CHANNELS 3 Xrotation Yrotation Zrotation
								JOINT LeftHandThumb1
								{
									OFFSET 6.133995 -4.388519 7.076070
									CHANNELS 3 Xrotation Yrotation Zrotation
									JOINT LeftHandThumb2
									{
										OFFSET 6.037666 -3.485840 3.485847
										CHANNELS 3 Xrotation Yrotation Zrotation
										JOINT LeftHandThumb3
										{
											OFFSET 6.496506 -3.750763 3.750761
											CHANNELS 3 Xrotation Yrotation Zrotation
											JOINT LeftHandThumb4
											{
												OFFSET 5.616882 -3.242905 3.242910
												CHANNELS 3 Xrotation Yrotation Zrotation
												End Site
												{
													OFFSET -1.254608 7.132141 0.375429
												}
											}
										}
									}
								}
								JOINT LeftHandPinky1
								{
									OFFSET 18.920792 -0.453171 -11.426712
									CHANNELS 3 Xrotation Yrotation Zrotation
									JOINT LeftHandPinky2
									{
										OFFSET 4.919586 0.000000 0.000000
										CHANNELS 3 Xrotation Yrotation Zrotation
										JOINT LeftHandPinky3
										{
											OFFSET 5.233047 0.000000 0.000000
											CHANNELS 3 Xrotation Yrotation Zrotation
											JOINT LeftHandPinky4
											{
												OFFSET 5.571716 0.000000 0.000000
												CHANNELS 3 Xrotation Yrotation Zrotation
												End Site
												{
													OFFSET -3.459808 4.342407 -0.466164
												}
											}
										}
									}
								}
								JOINT LeftHandRing1
								{
									OFFSET 22.726120 -0.094986 -6.500475
									CHANNELS 3 Xrotation Yrotation Zrotation
									JOINT LeftHandRing2
									{
										OFFSET 6.408615 0.000000 0.000000
										CHANNELS 3 Xrotation Yrotation Zrotation
										JOINT LeftHandRing3
										{
											OFFSET 6.150223 0.000000 0.000000
											CHANNELS 3 Xrotation Yrotation Zrotation
											JOINT LeftHandRing4
											{
												OFFSET 6.145386 0.000000 0.000000
												CHANNELS 3 Xrotation Yrotation Zrotation
												End Site
												{
													OFFSET -3.671402 4.923981 -0.202372
												}
											}
										}
									}
								}
								JOINT LeftHandMiddle1
								{
									OFFSET 23.373947 0.000000 0.000001
									CHANNELS 3 Xrotation Yrotation Zrotation
									JOINT LeftHandMiddle2
									{
										OFFSET 6.996567 0.000000 0.000000
										CHANNELS 3 Xrotation Yrotation Zrotation
										JOINT LeftHandMiddle3
										{
											OFFSET 7.015945 0.000000 0.000000
											CHANNELS 3 Xrotation Yrotation Zrotation
											JOINT LeftHandMiddle4
											{
												OFFSET 7.721573 0.000000 0.000000
												CHANNELS 3 Xrotation Yrotation Zrotation
												End Site
												{
													OFFSET -4.651108 6.158463 0.251582
												}
											}
										}
									}
								}
								JOINT LeftHandIndex1
								{
									OFFSET 21.310577 -0.490082 6.209344
									CHANNELS 3 Xrotation Yrotation Zrotation
									JOINT LeftHandIndex2
									{
										OFFSET 7.536453 0.000000 0.000000
										CHANNELS 3 Xrotation Yrotation Zrotation
										JOINT LeftHandIndex3
										{
											OFFSET 7.512344 0.000000 0.000000
											CHANNELS 3 Xrotation Yrotation Zrotation
											JOINT LeftHandIndex4
											{
												OFFSET 10.212402 0.000000 0.000001
												CHANNELS 3 Xrotation Yrotation Zrotation
												End Site
												{
													OFFSET -5.180801 8.690506 1.388433
												}
											}
										}
									}
								}
							}
						}
					}
				}
				JOINT RightShoulder
				{
					OFFSET -17.399500 24.608795 1.168800
					CHANNELS 3 Xrotation Yrotation Zrotation
					JOINT RightArm
					{
						OFFSET -18.980635 5.765305 1.818600
						CHANNELS 3 Xrotation Yrotation Zrotation
						JOINT RightForeArm
						{
							OFFSET -49.290169 0.000000 0.000000
							CHANNELS 3 Xrotation Yrotation Zrotation
							JOINT RightHand
							{
								OFFSET -31.562012 0.000000 0.000000
								CHANNELS 3 Xrotation Yrotation Zrotation
								JOINT RightHandThumb1
								{
									OFFSET -6.133995 -4.388519 7.076070
									CHANNELS 3 Xrotation Yrotation Zrotation
									JOINT RightHandThumb2
									{
										OFFSET -6.037666 -3.485840 3.485847
										CHANNELS 3 Xrotation Yrotation Zrotation
										JOINT RightHandThumb3
										{
											OFFSET -6.496506 -3.750763 3.750761
											CHANNELS 3 Xrotation Yrotation Zrotation
											JOINT RightHandThumb4
											{
												OFFSET -5.616882 -3.242905 3.242910
												CHANNELS 3 Xrotation Yrotation Zrotation
												End Site
												{
													OFFSET 1.254608 7.132141 0.375429
												}
											}
										}
									}
								}
								JOINT RightHandIndex1
								{
									OFFSET -21.310577 -0.490082 6.209344
									CHANNELS 3 Xrotation Yrotation Zrotation
									JOINT RightHandIndex2
									{
										OFFSET -7.536453 0.000000 0.000000
										CHANNELS 3 Xrotation Yrotation Zrotation
										JOINT RightHandIndex3
										{
											OFFSET -7.512344 0.000000 0.000000
											CHANNELS 3 Xrotation Yrotation Zrotation
											JOINT RightHandIndex4
											{
												OFFSET -10.212402 0.000000 0.000001
												CHANNELS 3 Xrotation Yrotation Zrotation
												End Site
												{
													OFFSET 5.180801 8.690506 1.388433
												}
											}
										}
									}
								}
								JOINT RightHandMiddle1
								{
									OFFSET -23.373947 0.000000 0.000001
									CHANNELS 3 Xrotation Yrotation Zrotation
									JOINT RightHandMiddle2
									{
										OFFSET -6.996567 0.000000 0.000000
										CHANNELS 3 Xrotation Yrotation Zrotation
										JOINT RightHandMiddle3
										{
											OFFSET -7.015945 0.000000 0.000000
											CHANNELS 3 Xrotation Yrotation Zrotation
											JOINT RightHandMiddle4
											{
												OFFSET -7.721573 0.000000 0.000000
												CHANNELS 3 Xrotation Yrotation Zrotation
												End Site
												{
													OFFSET 4.651108 6.158463 0.251582
												}
											}
										}
									}
								}
								JOINT RightHandRing1
								{
									OFFSET -22.726120 -0.094986 -6.500475
									CHANNELS 3 Xrotation Yrotation Zrotation
									JOINT RightHandRing2
									{
										OFFSET -6.408615 0.000000 0.000000
										CHANNELS 3 Xrotation Yrotation Zrotation
										JOINT RightHandRing3
										{
											OFFSET -6.150223 0.000000 0.000000
											CHANNELS 3 Xrotation Yrotation Zrotation
											JOINT RightHandRing4
											{
												OFFSET -6.145386 0.000000 0.000000
												CHANNELS 3 Xrotation Yrotation Zrotation
												End Site
												{
													OFFSET 3.671402 4.923981 -0.202372
												}
											}
										}
									}
								}
								JOINT RightHandPinky1
								{
									OFFSET -18.920792 -0.453171 -11.426712
									CHANNELS 3 Xrotation Yrotation Zrotation
									JOINT RightHandPinky2
									{
										OFFSET -4.919586 0.000000 0.000000
										CHANNELS 3 Xrotation Yrotation Zrotation
										JOINT RightHandPinky3
										{
											OFFSET -5.233047 0.000000 0.000000
											CHANNELS 3 Xrotation Yrotation Zrotation
											JOINT RightHandPinky4
											{
												OFFSET -5.571716 0.000000 0.000000
												CHANNELS 3 Xrotation Yrotation Zrotation
												End Site
												{
													OFFSET 3.459808 4.342407 -0.466164
												}
											}
										}
									}
								}
							}
						}
					}
				}
			}
		}
	}
	JOINT LeftUpLeg
	{
		OFFSET 19.899099 -7.885101 -3.429500
		CHANNELS 3 Xrotation Yrotation Zrotation
		JOINT LeftLeg
		{
			OFFSET 1.745560 -36.997807 10.304700
			CHANNELS 3 Xrotation Yrotation Zrotation
			JOINT LeftFoot
			{
				OFFSET -1.745558 -29.803308 -13.615400
				CHANNELS 3 Xrotation Yrotation Zrotation
				JOINT LeftToeBase
				{
					OFFSET 1.181900 -18.539904 15.226099
					CHANNELS 3 Xrotation Yrotation Zrotation
					JOINT LeftToe_End
					{
						OFFSET -0.863701 1.402801 16.534700
						CHANNELS 3 Xrotation Yrotation Zrotation
						End Site
						{
							OFFSET 0.000000 16.616566 0.000000
						}
					}
				}
			}
		}
	}
	JOINT RightUpLeg
	{
		OFFSET -19.899099 -7.885101 -3.429500
		CHANNELS 3 Xrotation Yrotation Zrotation
		JOINT RightLeg
		{
			OFFSET -1.745560 -36.997807 10.304700
			CHANNELS 3 Xrotation Yrotation Zrotation
			JOINT RightFoot
			{
				OFFSET 1.745558 -29.803308 -13.615400
				CHANNELS 3 Xrotation Yrotation Zrotation
				JOINT RightToeBase
				{
					OFFSET -1.181900 -18.539904 15.226099
					CHANNELS 3 Xrotation Yrotation Zrotation
					JOINT RightToe_End
					{
						OFFSET 0.863701 1.402801 16.534700
						CHANNELS 3 Xrotation Yrotation Zrotation
						End Site
						{
							OFFSET 0.000000 16.616566 0.000000
						}
					}
				}
			}
		}
	}
}
MOTION
Frames: 4
Frame Time: 0.033333
-0.454679 115.424355 7.358734 -95.483558 -7.261340 0.284148 0.879412 0.616519 -2.011048 2.204482 1.745676 -0.641478 2.213697 1.733660 -0.632011 -3.370845 14.385768 -4.148023 2.663414 45.881751 -4.391896 -0.000000 0.000001 -0.000000 0.563325 0.117112 -3.288171 22.106915 -32.830817 -61.608142 0.000055 -79.568897 0.000032 -1.671783 7.029182 -14.735488 -5.218364 -3.356275 5.597621 7.385525 23.148025 2.272618 -6.113321 7.849288 15.229433 -0.000002 -0.000000 0.000000 0.322885 4.082507 -17.072553 0.379113 2.075031 -20.705403 0.379102 2.075028 -20.705411 0.000001 -0.000000 -0.000000 0.574700 4.751509 -24.069194 0.379122 2.075041 -20.705411 0.379107 2.075022 -20.705406 0.000001 -0.000003 0.000003 0.656288 4.925777 -25.952615 0.379120 2.075034 -20.705403 0.379108 2.075027 -20.705401 -0.000001 -0.000003 0.000004 0.915712 5.403834 -29.714168 0.382354 2.083618 -20.795015 0.380458 2.078591 -20.742593 -0.000000 -0.000002 -0.000002 0.746811 3.259627 9.950470 38.092696 29.494960 34.401364 -0.000112 102.406372 0.000161 -38.676168 12.174587 12.506702 -8.245223 0.297015 -8.931433 7.579963 -24.795260 -2.907008 -2.801590 -37.398564 -21.178861 0.000001 -0.000001 -0.000000 0.890480 -3.308866 34.539638 0.218001 -1.409603 17.581793 0.218168 -1.410132 17.588731 -0.000000 -0.000003 -0.000002 -0.238012 -3.210516 32.824953 0.218149 -1.410058 17.587689 0.218169 -1.410136 17.588760 0.000002 0.000000 -0.000009 -0.304353 -2.814331 28.489868 0.217877 -1.409228 17.577003 0.218172 -1.410137 17.588763 0.000000 0.000000 -0.000002 0.330076 -3.878150 20.013571 0.218165 -1.410136 17.588678 0.218174 -1.410136 17.588678 -0.000002 0.000001 0.000002 1.245799 14.483563 12.696977 9.478925 -1.928256 4.719670 37.426226 29.788791 -33.275114 -7.350120 0.000011 0.000009 0.000001 -0.000001 -0.000000 -6.350525 -13.810704 -15.042354 12.529972 -1.798294 -5.070709 38.257566 -29.374284 30.920799 -5.020848 0.000003 -0.000013 -0.000003 0.000001 -0.000001 
-0.458091 115.424454 7.344414 -95.479938 -7.247526 0.283584 0.862457 0.598068 -2.011897 2.143382 1.723780 -0.640440 2.150820 1.713885 -0.632011 -3.174162 15.676076 -4.159738 1.890870 44.428704 -3.491636 -0.000000 0.000002 -0.000000 0.562068 0.095348 -3.278863 22.267274 -32.819455 -61.503675 0.000233 -79.620150 0.000209 -1.802523 7.084866 -14.686942 -5.218357 -3.356276 5.597618 7.385531 23.148023 2.272621 -6.113327 7.849319 15.229454 -0.000003 -0.000002 0.000003 0.318827 4.069267 -16.937196 0.379110 2.075040 -20.705397 0.379105 2.075036 -20.705408 -0.000002 0.000003 -0.000004 0.569058 4.738870 -23.933668 0.379111 2.075033 -20.705392 0.379117 2.075031 -20.705401 -0.000003 0.000001 0.000003 0.650227 4.913320 -25.817038 0.379110 2.075040 -20.705399 0.379111 2.075042 -20.705401 0.000001 -0.000004 0.000004 0.908500 5.392000 -29.578414 0.382368 2.083621 -20.795006 0.380464 2.078576 -20.742600 -0.000000 0.000005 -0.000001 0.704901 3.432950 9.939844 38.211835 29.413930 34.424690 -0.000147 102.421275 0.000169 -38.741093 12.190733 12.447399 -8.245215 0.297008 -8.931430 7.579963 -24.795265 -2.907000 -2.801576 -37.398564 -21.178858 -0.000001 -0.000001 0.000002 0.888566 -3.301736 34.432660 0.218002 -1.409600 17.581785 0.218163 -1.410133 17.588722 -0.000002 -0.000003 -0.000001 -0.239730 -3.201288 32.718221 0.218143 -1.410056 17.587691 0.218170 -1.410139 17.588762 -0.000000 -0.000000 -0.000001 -0.305602 -2.802451 28.354253 0.217886 -1.409228 17.577002 0.218176 -1.410137 17.588765 0.000001 -0.000000 -0.000005 0.324949 -3.864064 19.829272 0.218170 -1.410131 17.588685 0.218165 -1.410135 17.588685 0.000000 -0.000001 0.000004 1.266147 14.473541 12.876385 9.384998 -1.172724 4.649578 37.189103 29.073947 -32.808739 -7.350127 0.000008 0.000012 -0.000001 0.000001 -0.000000 -6.360259 -13.796172 -14.998955 12.469208 -1.515283 -5.094281 38.419824 -29.357663 30.888270 -5.137369 0.000001 -0.000008 -0.000000 0.000000 -0.000001 
-0.453960 115.421570 7.331497 -95.474857 -7.230898 0.280537 0.841096 0.590065 -2.010071 2.069244 1.708980 -0.638450 2.074770 1.699924 -0.632012 -3.161149 15.535504 -4.202259 1.188165 43.938955 -2.560212 0.000000 0.000001 -0.000000 0.557721 0.020601 -3.247367 22.536933 -32.812099 -61.250056 0.000005 -79.690208 -0.000001 -2.061343 7.136633 -14.613985 -5.218366 -3.356282 5.597612 7.385531 23.148028 2.272621 -6.113319 7.849298 15.229455 0.000001 0.000002 -0.000001 0.307976 4.033303 -16.569800 0.379112 2.075032 -20.705416 0.379106 2.075032 -20.705409 -0.000001 0.000002 -0.000002 0.553870 4.704478 -23.565788 0.379113 2.075032 -20.705408 0.379108 2.075036 -20.705403 -0.000000 -0.000002 0.000003 0.633910 4.879433 -25.449015 0.379110 2.075035 -20.705404 0.379109 2.075024 -20.705413 -0.000002 0.000001 0.000009 0.889078 5.359767 -29.209967 0.382369 2.083609 -20.795010 0.380454 2.078601 -20.742607 -0.000001 -0.000002 -0.000002 0.659537 3.643391 9.911636 38.326223 29.304093 34.524612 0.000099 102.441691 -0.000072 -38.793757 12.203706 12.377935 -8.245215 0.297008 -8.931446 7.579951 -24.795267 -2.906990 -2.801565 -37.398571 -21.178863 0.000002 0.000001 0.000003 0.883465 -3.282486 34.143948 0.218005 -1.409592 17.581783 0.218170 -1.410136 17.588729 -0.000001 -0.000002 0.000003 -0.244281 -3.176386 32.430264 0.218144 -1.410058 17.587689 0.218168 -1.410136 17.588758 0.000001 0.000000 -0.000001 -0.308811 -2.770377 27.988372 0.217885 -1.409226 17.577003 0.218173 -1.410137 17.588765 -0.000000 -0.000000 -0.000003 0.311390 -3.825969 19.331993 0.218169 -1.410136 17.588683 0.218167 -1.410135 17.588681 0.000001 0.000003 -0.000001 1.266706 14.474062 12.868906 9.341336 -1.199653 4.654263 37.198457 29.059272 -32.783600 -7.339054 -0.000028 -0.000001 -0.000000 0.000004 -0.000001 -6.319579 -13.794812 -14.983796 12.394938 -1.521632 -5.090500 38.447340 -29.363905 30.896859 -5.141127 -0.000007 0.000009 -0.000001 -0.000001 -0.000001 
-0.450186 115.416824 7.319138 -95.471271 -7.216468 0.277498 0.817090 0.590771 -2.008439 1.987274 1.699339 -0.636547 1.990792 1.690010 -0.629247 -3.155695 15.249548 -4.276435 0.486956 43.184062 -1.611681 0.000001 0.000001 -0.000000 0.549757 -0.121711 -3.188972 22.907812 -32.800727 -60.866555 -0.000123 -79.787804 -0.000141 -2.448296 7.188861 -14.496296 -5.218360 -3.356303 5.597606 7.385528 23.148027 2.272618 -6.113331 7.849285 15.229430 0.000001 0.000002 -0.000002 0.292399 3.980144 -16.028429 0.379112 2.075023 -20.705415 0.379110 2.075033 -20.705403 -0.000001 0.000001 0.000001 0.531906 4.653612 -23.023712 0.379115 2.075033 -20.705416 0.379116 2.075027 -20.705404 -0.000003 -0.000001 0.000005 0.610279 4.829339 -24.906732 0.379116 2.075026 -20.705406 0.379109 2.075038 -20.705411 -0.000003 -0.000001 0.000006 0.860848 5.312029 -28.667079 0.382355 2.083621 -20.795003 0.380458 2.078585 -20.742612 0.000001 -0.000000 0.000001 0.613135 3.875712 9.861159 38.429472 29.184063 34.683100 -0.000061 102.461553 0.000066 -38.839502 12.214718 12.304301 -8.245221 0.297014 -8.931447 7.579963 -24.795257 -2.907014 -2.801565 -37.398568 -21.178834 0.000006 0.000001 -0.000000 0.868106 -3.259649 33.721546 0.217999 -1.409606 17.581781 0.218168 -1.410133 17.588722 -0.000001 -0.000002 0.000003 -0.250719 -3.139940 32.009395 0.218144 -1.410058 17.587681 0.218166 -1.410137 17.588762 0.000001 -0.000000 -0.000004 -0.313144 -2.723455 27.453624 0.217874 -1.409227 17.577003 0.218175 -1.410137 17.588753 -0.000000 0.000001 0.000002 0.292122 -3.770077 18.605271 0.218167 -1.410135 17.588688 0.218170 -1.410127 17.588669 -0.000000 -0.000001 0.000007 1.265444 14.474492 12.859684 9.303206 -1.232349 4.659503 37.217171 29.055857 -32.763984 -7.321647 0.000001 -0.000014 0.000001 0.000002 -0.000001 -6.278497 -13.794670 -14.970477 12.324962 -1.545944 -5.085548 38.468339 -29.370654 30.906466 -5.146113 -0.000002 -0.000005 0.000000 0.000001 -0.000000 
